<?xml version="1.0" standalone="no"?>
<!DOCTYPE svg PUBLIC "-//W3C//DTD SVG 20010904//EN"
 "http://www.w3.org/TR/2001/REC-SVG-20010904/DTD/svg10.dtd">
<svg version="1.0" xmlns="http://www.w3.org/2000/svg"
 width="630.000000pt" height="254.000000pt" viewBox="0 0 630.000000 254.000000"
 preserveAspectRatio="xMidYMid meet">
<metadata>
Created by potrace 1.16, written by Peter Selinger 2001-2019
</metadata>
<g transform="translate(0.000000,254.000000) scale(0.100000,-0.100000)"
fill="#ffffff" stroke="none">
<path d="M1126 2318 c-18 -40 -199 -437 -401 -883 -202 -445 -411 -907 -465
-1025 l-98 -215 995 -3 c548 -1 998 0 1001 3 3 2 -79 188 -181 412 -544 1195
-797 1755 -797 1763 0 5 -5 12 -10 15 -6 3 -25 -27 -44 -67z"/>
<path d="M2015 2085 c-48 -99 -102 -211 -120 -250 -18 -38 -56 -119 -85 -180
-80 -170 -100 -213 -100 -220 0 -4 17 -37 39 -73 47 -82 81 -148 210 -412 55
-113 118 -238 141 -277 l41 -73 389 0 c215 0 390 2 390 5 0 5 -194 399 -659
1340 l-158 320 -88 -180z"/>
<path d="M3287 2118 c-3 -18 -9 -63 -13 -100 -5 -57 -4 -68 9 -68 8 0 17 13
21 31 11 58 38 101 72 115 19 8 67 14 109 14 l76 0 -3 -323 c-3 -357 -3 -357
-64 -357 -27 0 -34 -4 -34 -20 0 -19 7 -20 166 -20 152 0 165 1 162 18 -2 11
-14 18 -38 20 -19 2 -41 10 -47 19 -10 13 -13 97 -13 340 l0 323 70 0 c114 0
154 -25 175 -108 8 -31 18 -48 30 -50 14 -3 17 1 12 20 -3 12 -9 58 -12 101
l-7 77 -333 0 -333 0 -5 -32z"/>
<path d="M4801 1899 c-46 -4 -128 -7 -182 -6 -88 2 -99 0 -99 -15 0 -12 8 -18
24 -18 14 0 28 -5 31 -10 6 -10 -95 -330 -105 -330 -10 0 -93 308 -87 324 4 9
16 16 27 16 12 0 20 7 20 18 0 15 -12 17 -115 17 -103 0 -115 -2 -115 -17 0
-11 8 -18 19 -18 45 0 44 -22 -15 -184 -31 -87 -60 -153 -64 -149 -15 16 -97
297 -92 315 2 11 13 18 28 18 16 0 24 6 24 18 0 15 -12 17 -120 17 -108 0
-120 -2 -120 -17 0 -11 8 -18 19 -18 10 0 24 -7 31 -15 7 -8 45 -115 85 -237
71 -219 73 -223 101 -226 29 -3 29 -2 104 192 41 108 78 192 81 188 4 -4 19
-47 34 -97 87 -295 83 -285 113 -285 32 0 21 -23 123 260 39 107 76 201 82
209 15 18 103 8 128 -15 17 -15 19 -34 19 -195 0 -97 -3 -184 -6 -193 -3 -9
-24 -18 -50 -22 -28 -4 -44 -11 -44 -20 0 -11 29 -14 150 -14 118 0 150 3 150
13 0 8 -17 18 -37 23 l-38 9 -3 238 c-1 130 -6 236 -10 236 -4 -1 -45 -5 -91
-10z"/>
<path d="M5185 1903 c-11 -1 -55 -5 -97 -8 -89 -8 -105 -27 -35 -41 l42 -9 3
-185 c1 -102 0 -195 -3 -206 -3 -15 -15 -24 -40 -28 -21 -4 -35 -13 -35 -21 0
-12 23 -15 130 -15 105 0 130 3 130 14 0 8 -13 19 -30 25 l-30 10 0 146 c0
106 4 153 14 173 51 98 179 126 212 47 15 -37 21 -339 6 -361 -4 -6 -22 -15
-39 -19 -19 -3 -33 -13 -33 -21 0 -11 24 -14 130 -14 105 0 130 3 130 14 0 8
-13 19 -30 25 l-30 10 0 150 c0 188 -10 240 -55 280 -71 62 -187 50 -266 -30
l-48 -47 -3 56 c-3 50 -5 57 -23 55z"/>
<path d="M5153 1053 c-75 -3 -83 -6 -83 -23 0 -14 7 -20 23 -20 48 0 47 5 45
-356 l-3 -339 -37 -9 c-21 -5 -38 -15 -38 -23 0 -10 29 -13 130 -13 109 0 130
2 130 15 0 8 -8 15 -18 15 -33 0 -42 22 -42 101 0 57 4 80 16 89 17 15 10 21
102 -88 65 -76 71 -89 47 -98 -8 -4 -15 -12 -15 -20 0 -11 24 -14 120 -14 96
0 120 3 120 14 0 8 -11 17 -25 20 -22 6 -255 249 -255 266 0 18 172 161 199
166 17 4 31 13 31 20 0 11 -22 14 -100 14 -82 0 -100 -3 -100 -15 0 -8 9 -15
20 -15 49 0 33 -32 -64 -128 l-96 -97 0 273 c0 212 -3 272 -12 270 -7 -1 -50
-4 -95 -5z"/>
<path d="M3320 1010 c0 -12 11 -20 35 -24 26 -5 39 -14 45 -32 13 -33 13 -585
1 -617 -7 -17 -20 -26 -45 -31 -22 -4 -36 -13 -36 -21 0 -13 27 -15 165 -15
137 0 165 2 165 14 0 10 -16 17 -46 22 -60 9 -65 25 -62 176 l3 119 105 3
c115 3 165 18 214 64 40 38 56 81 56 154 0 76 -21 123 -69 155 -59 40 -98 46
-318 48 -198 2 -213 1 -213 -15z m396 -43 c43 -22 64 -71 64 -149 0 -119 -49
-169 -168 -171 l-67 -2 -3 174 -2 174 72 -5 c40 -3 87 -12 104 -21z"/>
<path d="M4138 780 c-90 -15 -157 -76 -184 -166 -42 -140 10 -285 120 -335 52
-24 171 -25 224 -3 69 28 137 113 112 138 -10 8 -14 7 -18 -4 -10 -31 -82 -89
-117 -96 -48 -9 -104 1 -135 24 -38 27 -70 98 -70 154 l0 48 176 0 177 0 -6
52 c-16 136 -130 212 -279 188z m120 -46 c29 -20 42 -46 51 -103 l8 -49 -118
-7 c-65 -4 -122 -4 -127 -1 -12 7 0 73 21 113 30 58 115 82 165 47z"/>
<path d="M4683 780 c-88 -18 -153 -72 -153 -127 0 -31 21 -53 49 -53 26 0 51
41 51 83 0 37 4 46 25 55 45 21 103 15 130 -13 22 -21 25 -33 25 -99 0 -70 -2
-76 -22 -81 -117 -25 -197 -48 -222 -63 -45 -26 -71 -79 -62 -125 11 -59 43
-89 104 -95 73 -7 115 4 166 43 l44 34 6 -24 c10 -40 34 -55 85 -55 33 0 58 7
82 23 37 25 55 66 23 52 -11 -5 -32 -9 -49 -9 l-30 -1 -5 175 c-4 152 -8 180
-25 210 -34 58 -129 88 -222 70z m122 -397 c-7 -31 -72 -73 -112 -73 -45 0
-73 30 -73 78 0 66 29 91 135 117 l50 12 3 -56 c2 -30 1 -65 -3 -78z"/>
<path d="M5775 766 c-72 -31 -110 -120 -82 -189 17 -40 75 -78 147 -97 125
-33 169 -90 120 -153 -37 -47 -133 -48 -188 -2 -17 15 -34 43 -42 70 -7 25
-19 45 -26 45 -11 0 -14 -20 -14 -85 0 -66 3 -85 14 -85 8 0 16 6 19 14 5 12
12 11 44 -5 26 -13 58 -19 109 -19 96 0 150 27 182 93 47 94 6 168 -115 208
-38 12 -85 30 -105 40 -65 33 -76 82 -27 123 60 51 155 25 193 -54 12 -23 25
-43 29 -44 4 0 9 32 11 72 2 56 0 72 -11 72 -7 0 -16 -7 -19 -15 -5 -12 -12
-11 -45 5 -45 24 -147 27 -194 6z"/>
</g>
</svg>
