<?xml version="1.0" encoding="UTF-8"?>
<!DOCTYPE svg PUBLIC "-//W3C//DTD SVG 1.1//EN" "http://www.w3.org/Graphics/SVG/1.1/DTD/svg11.dtd">
<svg xmlns="http://www.w3.org/2000/svg" version="1.1" width="192px" height="192px" style="shape-rendering:geometricPrecision; text-rendering:geometricPrecision; image-rendering:optimizeQuality; fill-rule:evenodd; clip-rule:evenodd" xmlns:xlink="http://www.w3.org/1999/xlink">
<g><path style="opacity:0.989" fill="#fefffe" d="M 19.5,-0.5 C 70.1667,-0.5 120.833,-0.5 171.5,-0.5C 180.772,3.1059 187.439,9.43923 191.5,18.5C 191.5,69.8333 191.5,121.167 191.5,172.5C 187.439,181.561 180.772,187.894 171.5,191.5C 153.5,191.5 135.5,191.5 117.5,191.5C 117.5,168.833 117.5,146.167 117.5,123.5C 127.167,123.5 136.833,123.5 146.5,123.5C 148.383,112.564 150.05,101.564 151.5,90.5C 140.167,90.5 128.833,90.5 117.5,90.5C 117.5,82.5 117.5,74.5 117.5,66.5C 129.167,66.5 140.833,66.5 152.5,66.5C 152.5,55.5 152.5,44.5 152.5,33.5C 140.162,33.3335 127.829,33.5001 115.5,34C 97.5453,36.9547 87.3786,47.4547 85,65.5C 84.5003,73.8267 84.3336,82.16 84.5,90.5C 77.1667,90.5 69.8333,90.5 62.5,90.5C 62.5,101.5 62.5,112.5 62.5,123.5C 69.8333,123.5 77.1667,123.5 84.5,123.5C 84.5,146.167 84.5,168.833 84.5,191.5C 62.8333,191.5 41.1667,191.5 19.5,191.5C 8.80834,186.812 2.14167,178.812 -0.5,167.5C -0.5,119.5 -0.5,71.5 -0.5,23.5C 2.14167,12.188 8.80834,4.18796 19.5,-0.5 Z"/></g>
</svg>
