<?xml version="1.0" encoding="UTF-8"?>
<!DOCTYPE svg PUBLIC "-//W3C//DTD SVG 1.1//EN" "http://www.w3.org/Graphics/SVG/1.1/DTD/svg11.dtd">
<svg xmlns="http://www.w3.org/2000/svg" version="1.1" width="192px" height="192px" style="shape-rendering:geometricPrecision; text-rendering:geometricPrecision; image-rendering:optimizeQuality; fill-rule:evenodd; clip-rule:evenodd" xmlns:xlink="http://www.w3.org/1999/xlink">
<g><path style="opacity:0.983" fill="#fefffe" d="M 41.5,-0.5 C 77.5,-0.5 113.5,-0.5 149.5,-0.5C 171.167,5.83333 185.167,19.8333 191.5,41.5C 191.5,77.5 191.5,113.5 191.5,149.5C 185.167,171.167 171.167,185.167 149.5,191.5C 113.5,191.5 77.5,191.5 41.5,191.5C 19.8333,185.167 5.83333,171.167 -0.5,149.5C -0.5,113.5 -0.5,77.5 -0.5,41.5C 5.83333,19.8333 19.8333,5.83333 41.5,-0.5 Z M 146.5,24.5 C 163.766,24.2575 169.599,32.2575 164,48.5C 156.829,56.2586 148.996,57.092 140.5,51C 133.122,40.0576 135.122,31.2243 146.5,24.5 Z M 88.5,43.5 C 114.53,42.0897 133.03,53.0897 144,76.5C 151.975,101.906 145.475,122.739 124.5,139C 103.163,151.094 82.4962,150.094 62.5,136C 46.46,121.546 40.6267,103.713 45,82.5C 51.8547,60.8046 66.3547,47.8046 88.5,43.5 Z"/></g>
<g><path style="opacity:0.812" fill="#fefffe" d="M 149.5,34.5 C 156.238,35.0611 157.905,38.2278 154.5,44C 148,45.5 145.5,43 147,36.5C 147.995,35.9341 148.828,35.2674 149.5,34.5 Z"/></g>
<g><path style="opacity:0.973" fill="#fefffe" d="M 90.5,53.5 C 111.714,52.8496 126.548,62.1829 135,81.5C 140.784,103.756 133.951,120.923 114.5,133C 93.2366,141.658 75.4033,137.158 61,119.5C 47.6498,94.2332 52.8165,73.7332 76.5,58C 81.1271,55.9561 85.7938,54.4561 90.5,53.5 Z"/></g>
</svg>
