<?xml version="1.0" encoding="UTF-8"?>
<!DOCTYPE svg PUBLIC "-//W3C//DTD SVG 1.1//EN" "http://www.w3.org/Graphics/SVG/1.1/DTD/svg11.dtd">
<svg xmlns="http://www.w3.org/2000/svg" version="1.1" width="1126px" height="569px" style="shape-rendering:geometricPrecision; text-rendering:geometricPrecision; image-rendering:optimizeQuality; fill-rule:evenodd; clip-rule:evenodd" xmlns:xlink="http://www.w3.org/1999/xlink">
<g><path style="opacity:0.083" fill="#fefffe" d="M 77.5,-0.5 C 83.5,-0.5 89.5,-0.5 95.5,-0.5C 98.9655,7.88704 102.632,16.2204 106.5,24.5C 106.167,24.8333 105.833,25.1667 105.5,25.5C 94.5449,19.1947 83.8783,12.5281 73.5,5.5C 74.4671,3.20994 75.8004,1.20994 77.5,-0.5 Z"/></g>
<g><path style="opacity:0.076" fill="#fefffe" d="M 244.5,-0.5 C 259.167,-0.5 273.833,-0.5 288.5,-0.5C 292.965,10.89 297.632,22.2234 302.5,33.5C 302.167,33.8333 301.833,34.1667 301.5,34.5C 282.269,23.0588 263.269,11.3922 244.5,-0.5 Z"/></g>
<g><path style="opacity:0.004" fill="#fefffe" d="M 941.5,30.5 C 942.833,31.1667 942.833,31.1667 941.5,30.5 Z"/></g>
<g><path style="opacity:0.042" fill="#fefffe" d="M 758.5,36.5 C 759.75,36.5774 760.583,37.244 761,38.5C 763.252,42.6395 764.585,46.9728 765,51.5C 760.867,49.1904 757.034,46.5237 753.5,43.5C 755.605,41.4084 757.272,39.0751 758.5,36.5 Z"/></g>
<g><path style="opacity:0.073" fill="#fefffe" d="M 576.5,38.5 C 582.666,50.8402 588.332,63.5068 593.5,76.5C 593.167,76.8333 592.833,77.1667 592.5,77.5C 581.917,71.2924 571.417,64.959 561,58.5C 560.333,57.5 560.333,56.5 561,55.5C 566.174,49.8013 571.341,44.1347 576.5,38.5 Z"/></g>
<g><path style="opacity:0.09" fill="#fefffe" d="M 393.5,44.5 C 401.718,61.1122 409.384,78.1122 416.5,95.5C 416.167,95.8333 415.833,96.1667 415.5,96.5C 400.667,87.9181 386.001,79.0848 371.5,70C 378.669,61.3329 386.002,52.8329 393.5,44.5 Z"/></g>
<g><path style="opacity:0.081" fill="#fefffe" d="M 210.5,70.5 C 212.335,71.1223 213.502,72.4556 214,74.5C 214.892,77.2837 216.058,79.9504 217.5,82.5C 217.167,82.8333 216.833,83.1667 216.5,83.5C 212.664,81.4164 208.997,79.083 205.5,76.5C 207.19,74.4807 208.856,72.4807 210.5,70.5 Z"/></g>
<g><path style="opacity:0.103" fill="#fefffe" d="M 27.5,80.5 C 28.4959,80.4142 29.3292,80.7476 30,81.5C 31.8333,85.8333 33.6667,90.1667 35.5,94.5C 35.1667,94.8333 34.8333,95.1667 34.5,95.5C 30.1189,93.3163 26.1189,90.6496 22.5,87.5C 23.9308,84.9613 25.5975,82.6279 27.5,80.5 Z"/></g>
<g><path style="opacity:0.054" fill="#fefffe" d="M 880.5,111.5 C 883.215,114.583 885.215,118.25 886.5,122.5C 882.906,122.038 879.573,120.372 876.5,117.5C 877.467,115.21 878.8,113.21 880.5,111.5 Z"/></g>
<g><path style="opacity:0.14" fill="#fefffe" d="M 332.5,115.5 C 334.136,116.749 335.303,118.416 336,120.5C 347.541,148.29 359.374,175.956 371.5,203.5C 371,203.833 370.5,204.167 370,204.5C 344.728,189.786 319.895,174.452 295.5,158.5C 308.078,144.322 320.411,129.988 332.5,115.5 Z"/></g>
<g><path style="opacity:0.082" fill="#fefffe" d="M 697.5,120.5 C 698.496,120.414 699.329,120.748 700,121.5C 702.167,126.667 704.333,131.833 706.5,137C 706.167,137.5 705.833,138 705.5,138.5C 700.5,135.333 695.5,132.167 690.5,129C 692.668,126.002 695.001,123.169 697.5,120.5 Z"/></g>
<g><path style="opacity:0.113" fill="#fefffe" d="M 515.5,121.5 C 522.52,135.715 529.187,150.215 535.5,165C 534.5,165.667 533.5,165.667 532.5,165C 520.457,157.985 508.791,150.485 497.5,142.5C 503.523,135.48 509.523,128.48 515.5,121.5 Z"/></g>
<g><path style="opacity:0.148" fill="#fefffe" d="M 149.5,143.5 C 151.686,144.823 153.186,146.823 154,149.5C 159.371,162.407 164.871,175.24 170.5,188C 170.167,188.167 169.833,188.333 169.5,188.5C 156.459,180.986 143.793,172.986 131.5,164.5C 137.523,157.48 143.523,150.48 149.5,143.5 Z"/></g>
<g><path style="opacity:0.111" fill="#fefffe" d="M 820.5,189.5 C 825.528,199.284 829.528,209.284 832.5,219.5C 824.3,214.572 816.3,209.405 808.5,204C 811.944,198.721 815.944,193.888 820.5,189.5 Z"/></g>
<g><path style="opacity:0.02" fill="#fefffe" d="M 1002.5,189.5 C 1003.83,190.167 1003.83,190.167 1002.5,189.5 Z"/></g>
<g><path style="opacity:0.128" fill="#fefffe" d="M 637.5,201.5 C 641.671,209.98 645.671,218.646 649.5,227.5C 649.167,227.833 648.833,228.167 648.5,228.5C 640.792,224.319 633.458,219.652 626.5,214.5C 629.814,209.854 633.481,205.521 637.5,201.5 Z"/></g>
<g><path style="opacity:0.185" fill="#fefffe" d="M 271.5,207.5 C 273.335,208.122 274.502,209.456 275,211.5C 284.309,233.766 293.809,255.932 303.5,278C 302.5,278.667 301.5,278.667 300.5,278C 280.462,266.32 260.796,254.154 241.5,241.5C 251.15,229.85 261.15,218.517 271.5,207.5 Z"/></g>
<g><path style="opacity:0.151" fill="#fefffe" d="M 454.5,209.5 C 455.79,210.058 456.623,211.058 457,212.5C 461.096,223.189 465.596,233.689 470.5,244C 469.5,244.667 468.5,244.667 467.5,244C 458.343,238.33 449.343,232.497 440.5,226.5C 445.19,220.814 449.857,215.147 454.5,209.5 Z"/></g>
<g><path style="opacity:0.204" fill="#fefffe" d="M 88.5,218.5 C 90.6864,219.823 92.1864,221.823 93,224.5C 102.038,246.073 111.204,267.573 120.5,289C 99.653,277.901 79.3197,265.734 59.5,252.5C 69.1894,241.147 78.8561,229.814 88.5,218.5 Z"/></g>
<g><path style="opacity:0.115" fill="#fefffe" d="M 941.5,270.5 C 942.75,270.577 943.583,271.244 944,272.5C 945.639,275.742 946.639,279.076 947,282.5C 943.54,280.698 940.374,278.531 937.5,276C 938.65,274.019 939.984,272.186 941.5,270.5 Z"/></g>
<g><path style="opacity:0.13" fill="#fefffe" d="M 758.5,280.5 C 760.335,281.122 761.502,282.456 762,284.5C 763.639,287.742 764.639,291.076 765,294.5C 761.081,292.124 757.248,289.624 753.5,287C 755.054,284.713 756.721,282.546 758.5,280.5 Z"/></g>
<g><path style="opacity:0.267" fill="#fefffe" d="M -0.5,359.5 C -0.5,344.5 -0.5,329.5 -0.5,314.5C 9.14459,303.853 18.8113,293.187 28.5,282.5C 47.33,324.172 65.6633,366.172 83.5,408.5C 81.477,409.041 79.477,408.541 77.5,407C 51.6388,390.904 25.6388,375.071 -0.5,359.5 Z"/></g>
<g><path style="opacity:0.178" fill="#fefffe" d="M 576.5,283.5 C 581.128,292.186 585.295,301.186 589,310.5C 590.314,313.089 590.981,315.756 591,318.5C 581.5,313.085 572.167,307.418 563,301.5C 562.333,300.5 562.333,299.5 563,298.5C 567.507,293.468 572.007,288.468 576.5,283.5 Z"/></g>
<g><path style="opacity:0.21" fill="#fefffe" d="M 393.5,284.5 C 403.119,304.251 412.119,324.418 420.5,345C 420.167,345.5 419.833,346 419.5,346.5C 402.167,335.833 384.833,325.167 367.5,314.5C 375.816,304.185 384.482,294.185 393.5,284.5 Z"/></g>
<g><path style="opacity:0.234" fill="#fefffe" d="M 210.5,290.5 C 211.75,290.577 212.583,291.244 213,292.5C 223.309,317.099 233.809,341.599 244.5,366C 244.167,366.167 243.833,366.333 243.5,366.5C 221.833,353.333 200.167,340.167 178.5,327C 189.375,314.962 200.042,302.795 210.5,290.5 Z"/></g>
<g><path style="opacity:0.074" fill="#fefffe" d="M 1063.5,346.5 C 1065.64,347.755 1066.31,349.422 1065.5,351.5C 1062.65,350.585 1061.98,348.918 1063.5,346.5 Z"/></g>
<g><path style="opacity:0.146" fill="#fefffe" d="M 880.5,354.5 C 881.75,354.577 882.583,355.244 883,356.5C 884.967,360.401 886.3,364.401 887,368.5C 882.867,366.19 879.034,363.524 875.5,360.5C 877.19,358.481 878.856,356.481 880.5,354.5 Z"/></g>
<g><path style="opacity:0.192" fill="#fefffe" d="M 697.5,361.5 C 699.335,362.122 700.502,363.456 701,365.5C 703.448,372.182 706.282,378.682 709.5,385C 701.679,382.373 694.679,378.207 688.5,372.5C 691.902,369.105 694.902,365.438 697.5,361.5 Z"/></g>
<g><path style="opacity:0.218" fill="#fefffe" d="M 515.5,369.5 C 520.482,378.805 524.982,388.471 529,398.5C 529.667,399.5 529.667,400.5 529,401.5C 519.706,396.443 510.873,390.777 502.5,384.5C 506.605,379.282 510.938,374.282 515.5,369.5 Z"/></g>
<g><path style="opacity:0.253" fill="#fefffe" d="M 332.5,373.5 C 334.136,374.749 335.303,376.416 336,378.5C 342,392.5 348,406.5 354,420.5C 354.749,421.635 354.583,422.635 353.5,423.5C 339.334,415.251 325.334,406.751 311.5,398C 318.336,389.667 325.336,381.5 332.5,373.5 Z"/></g>
<g><path style="opacity:0.258" fill="#fefffe" d="M 149.5,391.5 C 150.376,391.369 151.043,391.702 151.5,392.5C 155.638,401.942 159.638,411.442 163.5,421C 163.167,421.5 162.833,422 162.5,422.5C 153.961,417.402 145.627,412.069 137.5,406.5C 141.547,401.462 145.547,396.462 149.5,391.5 Z"/></g>
<g><path style="opacity:0.068" fill="#fefffe" d="M 1002.5,431.5 C 1004.27,432.314 1004.77,433.648 1004,435.5C 1001.63,434.683 1001.13,433.35 1002.5,431.5 Z"/></g>
<g><path style="opacity:0.295" fill="#fefffe" d="M 453.5,437.5 C 455.888,438.219 457.388,439.885 458,442.5C 468,465.833 478,489.167 488,512.5C 488.667,513.5 488.667,514.5 488,515.5C 465.379,502.446 443.212,488.779 421.5,474.5C 432.418,462.291 443.085,449.957 453.5,437.5 Z"/></g>
<g><path style="opacity:0.198" fill="#fefffe" d="M 819.5,437.5 C 822.716,441.588 825.216,446.254 827,451.5C 827.749,452.635 827.583,453.635 826.5,454.5C 821.795,452.153 817.462,449.32 813.5,446C 815.73,443.28 817.73,440.446 819.5,437.5 Z"/></g>
<g><path style="opacity:0.253" fill="#fefffe" d="M 636.5,441.5 C 637.496,441.414 638.329,441.748 639,442.5C 643.763,454.524 648.929,466.357 654.5,478C 652.711,478.52 651.044,478.187 649.5,477C 639.998,471.417 630.665,465.584 621.5,459.5C 626.523,453.481 631.523,447.481 636.5,441.5 Z"/></g>
<g><path style="opacity:0.314" fill="#fefffe" d="M 271.5,446.5 C 273.136,447.749 274.303,449.416 275,451.5C 285.558,476.949 296.391,502.283 307.5,527.5C 307.167,527.833 306.833,528.167 306.5,528.5C 283.165,514.835 260.165,500.668 237.5,486C 248.959,472.895 260.293,459.729 271.5,446.5 Z"/></g>
<g><path style="opacity:0.292" fill="#fefffe" d="M 89.5,477.5 C 93.7244,486.292 97.7244,495.292 101.5,504.5C 93.0885,501.375 85.0885,496.875 77.5,491C 81.3367,486.331 85.3367,481.831 89.5,477.5 Z"/></g>
<g><path style="opacity:0.012" fill="#fefffe" d="M 1125.5,506.5 C 1125.5,506.833 1125.5,507.167 1125.5,507.5C 1124.83,507.019 1124.83,506.685 1125.5,506.5 Z"/></g>
<g><path style="opacity:0.285" fill="#fefffe" d="M 758.5,513.5 C 760.686,514.823 762.186,516.823 763,519.5C 767.891,531.616 773.058,543.616 778.5,555.5C 778.167,555.833 777.833,556.167 777.5,556.5C 765.125,549.319 753.125,541.652 741.5,533.5C 747.189,526.814 752.856,520.147 758.5,513.5 Z"/></g>
<g><path style="opacity:0.136" fill="#fefffe" d="M 941.5,515.5 C 943.922,516.992 944.588,518.992 943.5,521.5C 942.3,520.469 940.966,519.635 939.5,519C 940.305,517.887 940.972,516.721 941.5,515.5 Z"/></g>
<g><path style="opacity:0.313" fill="#fefffe" d="M 598.5,568.5 C 595.167,568.5 591.833,568.5 588.5,568.5C 576.721,561.23 565.054,553.73 553.5,546C 560.967,537.03 568.633,528.197 576.5,519.5C 584.204,535.589 591.537,551.922 598.5,568.5 Z"/></g>
<g><path style="opacity:0.347" fill="#fefffe" d="M 226.5,568.5 C 211.167,568.5 195.833,568.5 180.5,568.5C 190.369,556.779 200.702,545.445 211.5,534.5C 217.045,545.589 222.045,556.923 226.5,568.5 Z"/></g>
<g><path style="opacity:0.312" fill="#fefffe" d="M 407.5,568.5 C 405.5,568.5 403.5,568.5 401.5,568.5C 395.338,564.53 389.004,560.697 382.5,557C 381.426,556.261 380.759,555.261 380.5,554C 384.987,548.845 389.487,543.678 394,538.5C 398.772,548.377 403.272,558.377 407.5,568.5 Z"/></g>
<g><path style="opacity:0.352" fill="#fefffe" d="M 39.5,568.5 C 28.5,568.5 17.5,568.5 6.5,568.5C 13.8398,560.161 21.1731,551.828 28.5,543.5C 32.9861,551.472 36.6528,559.806 39.5,568.5 Z"/></g>
</svg>
