<?xml version="1.0" encoding="UTF-8"?>
<!DOCTYPE svg PUBLIC "-//W3C//DTD SVG 1.1//EN" "http://www.w3.org/Graphics/SVG/1.1/DTD/svg11.dtd">
<svg xmlns="http://www.w3.org/2000/svg" version="1.1" width="192px" height="192px" style="shape-rendering:geometricPrecision; text-rendering:geometricPrecision; image-rendering:optimizeQuality; fill-rule:evenodd; clip-rule:evenodd" xmlns:xlink="http://www.w3.org/1999/xlink">
<g><path style="opacity:0.982" fill="#fefffe" d="M 13.5,-0.5 C 68.1667,-0.5 122.833,-0.5 177.5,-0.5C 183.451,2.45072 188.117,6.78405 191.5,12.5C 191.5,67.8333 191.5,123.167 191.5,178.5C 188.117,184.216 183.451,188.549 177.5,191.5C 122.833,191.5 68.1667,191.5 13.5,191.5C 5.82675,188.173 1.16008,182.506 -0.5,174.5C -0.5,121.833 -0.5,69.1667 -0.5,16.5C 1.16008,8.49373 5.82675,2.82706 13.5,-0.5 Z M 84.5,23.5 C 125.447,20.9807 152.614,38.9807 166,77.5C 172.644,116.379 158.478,144.546 123.5,162C 86.2914,173.93 56.458,164.097 34,132.5C 19.531,106.04 20.1977,80.0396 36,54.5C 48.1766,37.8053 64.3433,27.4719 84.5,23.5 Z"/></g>
<g><path style="opacity:0.929" fill="#fefffe" d="M 123.5,65.5 C 127.641,65.3036 129.975,67.3036 130.5,71.5C 127.949,90.3055 124.783,108.972 121,127.5C 118.884,132.575 115.384,133.741 110.5,131C 102.342,125.665 94.3416,120.165 86.5,114.5C 83.8333,111.833 83.8333,109.167 86.5,106.5C 94.8491,99.166 102.182,91.4993 108.5,83.5C 96.8333,91 85.1667,98.5 73.5,106C 64.5676,106.687 56.5676,104.354 49.5,99C 50.68,96.4022 52.68,94.7355 55.5,94C 78.0752,83.984 100.742,74.484 123.5,65.5 Z"/></g>
</svg>
