<svg width="154" height="62" viewBox="0 0 154 62" fill="none" xmlns="http://www.w3.org/2000/svg">
<path d="M52.7083 2.16135L73.6584 47.1615L52.7083 47.1615L41.6584 24.1614L52.7083 2.16135Z" fill="#133D4A"/>
<path d="M98.3252 12.8535H97.3145C97.2266 12.502 97.0654 12.0869 96.8311 11.6084C96.6064 11.1201 96.3525 10.6611 96.0693 10.2314C95.7764 9.78223 95.4541 9.3916 95.1025 9.05957C94.7607 8.71777 94.4287 8.52246 94.1064 8.47363C93.8037 8.43457 93.4229 8.40527 92.9639 8.38574C92.5049 8.36621 92.0801 8.35645 91.6895 8.35645H90.8398V24.9824C90.8398 25.3047 90.9082 25.6025 91.0449 25.876C91.1816 26.1396 91.4209 26.3447 91.7627 26.4912C91.9385 26.5596 92.3047 26.6523 92.8613 26.7695C93.4277 26.8867 93.8672 26.9502 94.1797 26.96V28H84.3652V26.96C84.6387 26.9404 85.0537 26.9014 85.6104 26.8428C86.1768 26.7842 86.5674 26.7109 86.7822 26.623C87.1045 26.4961 87.3389 26.3154 87.4854 26.0811C87.6416 25.8369 87.7197 25.5146 87.7197 25.1143V8.35645H86.8701C86.5674 8.35645 86.1914 8.36621 85.7422 8.38574C85.293 8.39551 84.8633 8.4248 84.4531 8.47363C84.1309 8.5127 83.7939 8.70801 83.4424 9.05957C83.1006 9.40137 82.7832 9.79199 82.4902 10.2314C82.1973 10.6709 81.9385 11.1396 81.7139 11.6377C81.4893 12.126 81.333 12.5312 81.2451 12.8535H80.2197V7.21387H98.3252V12.8535Z" fill="#133D4A"/>
<path d="M120.547 14.4941C120.137 14.5332 119.693 14.7041 119.214 15.0068C118.746 15.3096 118.404 15.7637 118.189 16.3691C117.701 17.8047 117.237 19.167 116.797 20.4561C116.368 21.7354 115.884 23.1758 115.347 24.7773C115.171 25.2852 114.991 25.832 114.805 26.418C114.629 27.0039 114.468 27.5654 114.322 28.1025H113.062L109.18 17.4678L105.269 28.1025H104.068C103.336 25.9346 102.618 23.7861 101.915 21.6572C101.221 19.5186 100.606 17.6582 100.069 16.0762C99.9127 15.6172 99.6148 15.2559 99.1754 14.9922C98.7359 14.7285 98.3111 14.5723 97.901 14.5234V13.5566H104.346V14.582C104.024 14.5918 103.672 14.6455 103.292 14.7432C102.921 14.8408 102.735 15.002 102.735 15.2266C102.735 15.2656 102.75 15.3486 102.779 15.4756C102.818 15.6025 102.862 15.7393 102.911 15.8857C103.223 16.9111 103.575 18.0586 103.965 19.3281C104.366 20.5879 104.879 22.2285 105.504 24.25L109.195 13.8496H110.601L114.366 24.1035C114.786 22.7949 115.201 21.5303 115.611 20.3096C116.031 19.0791 116.397 17.9268 116.71 16.8525C116.778 16.5986 116.841 16.3691 116.9 16.1641C116.968 15.9492 117.003 15.7393 117.003 15.5342C117.003 15.3584 116.924 15.2021 116.768 15.0654C116.612 14.9287 116.421 14.8164 116.197 14.7285C116.002 14.6504 115.787 14.5918 115.552 14.5527C115.328 14.5137 115.162 14.4941 115.054 14.4941V13.5566H120.547V14.4941Z" fill="#133D4A"/>
<path d="M127.565 28H120.577V27.0332C120.802 27.0137 121.031 26.9941 121.266 26.9746C121.51 26.9551 121.72 26.916 121.896 26.8574C122.169 26.7695 122.369 26.6182 122.496 26.4033C122.633 26.1787 122.701 25.8906 122.701 25.5391V16.6182C122.701 16.3057 122.628 16.0225 122.482 15.7686C122.345 15.5049 122.15 15.2852 121.896 15.1094C121.71 14.9922 121.442 14.8945 121.09 14.8164C120.738 14.7285 120.416 14.6748 120.123 14.6553V13.7031L125.221 13.3809L125.426 13.5859V25.3633C125.426 25.7051 125.489 25.9883 125.616 26.2129C125.753 26.4375 125.963 26.6035 126.246 26.7109C126.461 26.7988 126.671 26.8721 126.876 26.9307C127.081 26.9795 127.311 27.0137 127.565 27.0332V28ZM125.719 7.68262C125.719 8.23926 125.533 8.72754 125.162 9.14746C124.801 9.55762 124.352 9.7627 123.815 9.7627C123.317 9.7627 122.882 9.56738 122.511 9.17676C122.15 8.77637 121.969 8.32227 121.969 7.81445C121.969 7.27734 122.15 6.80859 122.511 6.4082C122.882 6.00781 123.317 5.80762 123.815 5.80762C124.371 5.80762 124.825 5.99805 125.177 6.37891C125.538 6.75 125.719 7.18457 125.719 7.68262Z" fill="#133D4A"/>
<path d="M144.689 28H137.614V27.0332C137.839 27.0137 138.083 26.9941 138.346 26.9746C138.62 26.9551 138.845 26.916 139.02 26.8574C139.294 26.7695 139.494 26.6182 139.621 26.4033C139.758 26.1787 139.826 25.8906 139.826 25.5391V18.1123C139.826 17.0869 139.582 16.2959 139.094 15.7393C138.615 15.1826 138.029 14.9043 137.336 14.9043C136.818 14.9043 136.345 14.9873 135.915 15.1533C135.485 15.3096 135.104 15.5049 134.772 15.7393C134.45 15.9639 134.191 16.208 133.996 16.4717C133.81 16.7256 133.674 16.9307 133.586 17.0869V25.3926C133.586 25.7246 133.654 25.998 133.791 26.2129C133.928 26.4277 134.133 26.5938 134.406 26.7109C134.611 26.8086 134.831 26.8818 135.065 26.9307C135.309 26.9795 135.558 27.0137 135.812 27.0332V28H128.737V27.0332C128.962 27.0137 129.191 26.9941 129.426 26.9746C129.67 26.9551 129.88 26.916 130.055 26.8574C130.329 26.7695 130.529 26.6182 130.656 26.4033C130.793 26.1787 130.861 25.8906 130.861 25.5391V16.6182C130.861 16.2861 130.788 15.9834 130.641 15.71C130.505 15.4268 130.309 15.1973 130.055 15.0215C129.87 14.9043 129.65 14.8213 129.396 14.7725C129.142 14.7139 128.869 14.6748 128.576 14.6553V13.7031L133.381 13.3809L133.586 13.5859V15.6221H133.659C133.893 15.3877 134.186 15.1094 134.538 14.7871C134.889 14.4551 135.221 14.1865 135.534 13.9814C135.895 13.7471 136.325 13.5518 136.823 13.3955C137.321 13.2393 137.883 13.1611 138.508 13.1611C139.894 13.1611 140.92 13.5957 141.584 14.4648C142.258 15.3242 142.595 16.4717 142.595 17.9072V25.4219C142.595 25.7637 142.653 26.042 142.77 26.2568C142.887 26.4619 143.088 26.623 143.371 26.7402C143.605 26.8379 143.805 26.9062 143.971 26.9453C144.147 26.9844 144.387 27.0137 144.689 27.0332V28Z" fill="#133D4A"/>
<path d="M97.3438 42.3408C97.3438 43.4248 97.1289 44.3867 96.6992 45.2266C96.2793 46.0566 95.6934 46.7451 94.9414 47.292C94.1992 47.8389 93.3838 48.2393 92.4951 48.4932C91.6064 48.7471 90.6641 48.874 89.668 48.874H87.3389V55.1729C87.3389 55.5146 87.3926 55.8174 87.5 56.0811C87.6172 56.335 87.8516 56.5303 88.2031 56.667C88.3789 56.7354 88.6865 56.7988 89.126 56.8574C89.5752 56.916 89.9854 56.9502 90.3564 56.96V58H81.4355V56.96C81.6699 56.9404 82.0068 56.9062 82.4463 56.8574C82.8955 56.8086 83.208 56.7451 83.3838 56.667C83.6768 56.54 83.8867 56.3545 84.0137 56.1104C84.1504 55.8662 84.2188 55.5537 84.2188 55.1729V40.1729C84.2188 39.8311 84.1699 39.5234 84.0723 39.25C83.9746 38.9766 83.7451 38.7715 83.3838 38.6348C83.0127 38.5078 82.6416 38.4199 82.2705 38.3711C81.9092 38.3125 81.5967 38.2734 81.333 38.2539V37.2139H90.8252C92.7588 37.2139 94.3262 37.6826 95.5273 38.6201C96.7383 39.5479 97.3438 40.7881 97.3438 42.3408ZM92.8906 45.8857C93.2227 45.417 93.4424 44.9336 93.5498 44.4355C93.6572 43.9277 93.7109 43.4736 93.7109 43.0732C93.7109 42.5166 93.6426 41.9502 93.5059 41.374C93.3789 40.7979 93.1543 40.2949 92.832 39.8652C92.4902 39.4062 92.041 39.0498 91.4844 38.7959C90.9277 38.542 90.2344 38.415 89.4043 38.415H87.3389V47.5996H88.833C89.8877 47.5996 90.7422 47.4385 91.3965 47.1162C92.0605 46.7842 92.5586 46.374 92.8906 45.8857Z" fill="#133D4A"/>
<path d="M111.597 54.6016C110.992 55.7539 110.181 56.6719 109.166 57.3555C108.15 58.0391 106.983 58.3809 105.665 58.3809C104.503 58.3809 103.482 58.1758 102.603 57.7656C101.734 57.3555 101.016 56.7988 100.45 56.0957C99.8834 55.3926 99.4586 54.5723 99.1754 53.6348C98.9019 52.6973 98.7652 51.7061 98.7652 50.6611C98.7652 49.7236 98.9117 48.8057 99.2047 47.9072C99.5074 46.999 99.9469 46.1836 100.523 45.4609C101.08 44.7676 101.768 44.2109 102.588 43.791C103.419 43.3613 104.346 43.1465 105.372 43.1465C106.426 43.1465 107.33 43.3125 108.082 43.6445C108.834 43.9766 109.444 44.4307 109.913 45.0068C110.362 45.5537 110.694 46.1982 110.909 46.9404C111.133 47.6826 111.246 48.4883 111.246 49.3574V50.3242H101.68C101.68 51.2715 101.768 52.1309 101.944 52.9023C102.129 53.6738 102.418 54.3525 102.808 54.9385C103.189 55.5049 103.687 55.9541 104.302 56.2861C104.918 56.6084 105.65 56.7695 106.5 56.7695C107.369 56.7695 108.116 56.5693 108.741 56.1689C109.376 55.7588 109.986 55.0264 110.572 53.9717L111.597 54.6016ZM108.36 49.0938C108.36 48.5469 108.311 47.9609 108.213 47.3359C108.126 46.7109 107.979 46.1885 107.774 45.7686C107.549 45.3193 107.242 44.9531 106.851 44.6699C106.461 44.3867 105.958 44.2451 105.342 44.2451C104.317 44.2451 103.462 44.6748 102.779 45.5342C102.105 46.3838 101.739 47.5703 101.68 49.0938H108.36Z" fill="#133D4A"/>
<path d="M126.349 57.7363C125.89 57.9023 125.485 58.0342 125.133 58.1318C124.791 58.2393 124.401 58.293 123.961 58.293C123.199 58.293 122.589 58.1172 122.13 57.7656C121.681 57.4043 121.393 56.8818 121.266 56.1982H121.178C120.543 56.9014 119.86 57.4385 119.127 57.8096C118.404 58.1807 117.53 58.3662 116.505 58.3662C115.421 58.3662 114.528 58.0342 113.824 57.3701C113.131 56.7061 112.784 55.8369 112.784 54.7627C112.784 54.2061 112.862 53.708 113.019 53.2686C113.175 52.8291 113.409 52.4336 113.722 52.082C113.966 51.7891 114.288 51.5303 114.689 51.3057C115.089 51.0713 115.465 50.8857 115.817 50.749C116.256 50.583 117.145 50.2754 118.483 49.8262C119.83 49.377 120.738 49.0254 121.207 48.7715V47.3213C121.207 47.1943 121.178 46.9502 121.119 46.5889C121.071 46.2275 120.958 45.8857 120.782 45.5635C120.587 45.2021 120.309 44.8896 119.947 44.626C119.596 44.3525 119.093 44.2158 118.439 44.2158C117.989 44.2158 117.57 44.2939 117.179 44.4502C116.798 44.5967 116.529 44.7529 116.373 44.9189C116.373 45.1143 116.417 45.4023 116.505 45.7832C116.603 46.1641 116.652 46.5156 116.652 46.8379C116.652 47.1797 116.495 47.4922 116.183 47.7754C115.88 48.0586 115.455 48.2002 114.908 48.2002C114.42 48.2002 114.059 48.0293 113.824 47.6875C113.6 47.3359 113.487 46.9453 113.487 46.5156C113.487 46.0664 113.644 45.6367 113.956 45.2266C114.279 44.8164 114.694 44.4502 115.201 44.1279C115.641 43.8545 116.173 43.625 116.798 43.4395C117.423 43.2441 118.033 43.1465 118.629 43.1465C119.449 43.1465 120.162 43.2051 120.768 43.3223C121.383 43.4297 121.94 43.6689 122.438 44.04C122.936 44.4014 123.312 44.8945 123.566 45.5195C123.829 46.1348 123.961 46.9307 123.961 47.9072C123.961 49.3037 123.946 50.5439 123.917 51.6279C123.888 52.7021 123.873 53.8789 123.873 55.1582C123.873 55.5391 123.937 55.8418 124.064 56.0664C124.2 56.291 124.405 56.4814 124.679 56.6377C124.825 56.7256 125.055 56.7744 125.367 56.7842C125.69 56.7939 126.017 56.7988 126.349 56.7988V57.7363ZM121.237 50.002C120.406 50.2461 119.679 50.4854 119.054 50.7197C118.429 50.9541 117.848 51.2471 117.311 51.5986C116.822 51.9307 116.437 52.3262 116.154 52.7852C115.87 53.2344 115.729 53.7715 115.729 54.3965C115.729 55.207 115.939 55.8027 116.359 56.1836C116.788 56.5645 117.33 56.7549 117.985 56.7549C118.678 56.7549 119.288 56.5889 119.816 56.2568C120.343 55.915 120.787 55.5146 121.149 55.0557L121.237 50.002Z" fill="#133D4A"/>
<path d="M142.492 58H138.127C137.365 56.8965 136.55 55.7148 135.68 54.4551C134.811 53.1953 133.908 51.9697 132.971 50.7783L131.769 51.9062V55.334C131.769 55.6855 131.833 55.9785 131.96 56.2129C132.087 56.4375 132.292 56.6035 132.575 56.7109C132.809 56.8086 133.034 56.8818 133.249 56.9307C133.464 56.9795 133.713 57.0137 133.996 57.0332V58H126.906V57.0332C127.131 57.0137 127.365 56.9941 127.609 56.9746C127.853 56.9453 128.058 56.9062 128.224 56.8574C128.498 56.7695 128.703 56.6182 128.84 56.4033C128.976 56.1787 129.045 55.8906 129.045 55.5391V38.752C129.045 38.3906 128.967 38.0537 128.81 37.7412C128.664 37.4189 128.469 37.1748 128.224 37.0088C128.019 36.8525 127.697 36.75 127.258 36.7012C126.828 36.6523 126.481 36.6182 126.218 36.5986V35.6611L131.564 35.3242L131.769 35.5439V50.8223C132.531 50.0605 133.351 49.2451 134.23 48.376C135.119 47.4971 135.866 46.7158 136.471 46.0322C136.55 45.9443 136.633 45.832 136.721 45.6953C136.818 45.5488 136.867 45.4316 136.867 45.3438C136.867 45.0801 136.652 44.8848 136.222 44.7578C135.803 44.6309 135.397 44.543 135.007 44.4941V43.5566H141.364V44.4648C140.544 44.709 139.816 45.0166 139.181 45.3877C138.556 45.749 138.078 46.0762 137.746 46.3691C137.512 46.5645 137.179 46.8818 136.75 47.3213C136.32 47.7607 135.72 48.3369 134.948 49.0498C135.749 50.0361 136.647 51.2178 137.643 52.5947C138.649 53.9717 139.382 54.9678 139.841 55.583C140.27 56.1592 140.656 56.5352 140.998 56.7109C141.34 56.8867 141.838 56.9941 142.492 57.0332V58Z" fill="#133D4A"/>
<path d="M152.204 50.9248C152.605 51.2764 152.912 51.6816 153.127 52.1406C153.342 52.5996 153.45 53.1611 153.45 53.8252C153.45 55.1631 152.947 56.2568 151.941 57.1064C150.945 57.9561 149.651 58.3809 148.059 58.3809C147.219 58.3809 146.443 58.2295 145.73 57.9268C145.027 57.624 144.524 57.3457 144.221 57.0918L143.928 58.0439H142.829L142.683 53.0195H143.694C143.772 53.4004 143.938 53.8447 144.192 54.3525C144.446 54.8604 144.753 55.3193 145.115 55.7295C145.495 56.1592 145.95 56.5205 146.477 56.8135C147.014 57.1064 147.615 57.2529 148.279 57.2529C149.216 57.2529 149.939 57.043 150.447 56.623C150.954 56.1934 151.208 55.583 151.208 54.792C151.208 54.3818 151.125 54.0303 150.959 53.7373C150.803 53.4346 150.569 53.1709 150.256 52.9463C149.934 52.7217 149.538 52.5215 149.07 52.3457C148.601 52.1602 148.079 51.9795 147.502 51.8037C147.043 51.667 146.531 51.4814 145.964 51.2471C145.408 51.0029 144.929 50.7197 144.529 50.3975C144.099 50.0557 143.747 49.6357 143.474 49.1377C143.201 48.6396 143.064 48.0537 143.064 47.3799C143.064 46.1982 143.503 45.1973 144.382 44.377C145.261 43.5566 146.438 43.1465 147.912 43.1465C148.479 43.1465 149.055 43.2197 149.641 43.3662C150.237 43.5127 150.72 43.6885 151.091 43.8936L151.428 43.1318H152.483L152.703 47.7754H151.692C151.487 46.7402 151.042 45.9004 150.359 45.2559C149.685 44.6016 148.86 44.2744 147.883 44.2744C147.082 44.2744 146.453 44.4746 145.994 44.875C145.535 45.2754 145.305 45.7588 145.305 46.3252C145.305 46.7646 145.378 47.1309 145.525 47.4238C145.681 47.7168 145.911 47.9658 146.213 48.1709C146.506 48.3662 146.872 48.5518 147.312 48.7275C147.761 48.8936 148.313 49.084 148.967 49.2988C149.612 49.5039 150.217 49.7432 150.784 50.0166C151.36 50.29 151.833 50.5928 152.204 50.9248Z" fill="#133D4A"/>
<path d="M28 0L55.7128 61.5H0.287186L28 0Z" fill="#133D4A"/>
</svg>
